<?xml version="1.0" standalone="no"?><svg xmlns="http://www.w3.org/2000/svg" viewBox="0 0 1440 320"><path fill="#4663BE" fill-opacity="1" d="M0,192L16,197.3C32,203,64,213,96,186.7C128,160,160,96,192,80C224,64,256,96,288,122.7C320,149,352,171,384,186.7C416,203,448,213,480,197.3C512,181,544,139,576,138.7C608,139,640,181,672,202.7C704,224,736,224,768,218.7C800,213,832,203,864,213.3C896,224,928,256,960,266.7C992,277,1024,267,1056,261.3C1088,256,1120,256,1152,240C1184,224,1216,192,1248,181.3C1280,171,1312,181,1344,186.7C1376,192,1408,192,1424,192L1440,192L1440,320L1424,320C1408,320,1376,320,1344,320C1312,320,1280,320,1248,320C1216,320,1184,320,1152,320C1120,320,1088,320,1056,320C1024,320,992,320,960,320C928,320,896,320,864,320C832,320,800,320,768,320C736,320,704,320,672,320C640,320,608,320,576,320C544,320,512,320,480,320C448,320,416,320,384,320C352,320,320,320,288,320C256,320,224,320,192,320C160,320,128,320,96,320C64,320,32,320,16,320L0,320Z"></path></svg>