<svg width="100%" height="100%" id="svg" viewBox="0 0 1440 700" xmlns="http://www.w3.org/2000/svg" class="transition duration-300 ease-in-out delay-150"><defs><linearGradient id="gradient" x1="0%" y1="50%" x2="100%" y2="50%"><stop offset="5%" stop-color="#002bdc44"></stop><stop offset="95%" stop-color="#21aee444"></stop></linearGradient></defs><path d="M 0,700 C 0,700 0,140 0,140 C 63.32188251459979,139.63723806252148 126.64376502919959,139.27447612504295 195,125 C 263.3562349708004,110.72552387495706 336.7468223978015,82.5393335623497 414,90 C 491.2531776021985,97.4606664376503 572.3689453795947,140.56818962555823 631,161 C 689.6310546204053,181.43181037444177 725.7773960838199,179.18790793541737 796,182 C 866.2226039161801,184.81209206458263 970.5214702851254,192.68017863277223 1046,189 C 1121.4785297148746,185.31982136722777 1168.1367227756784,170.09137753349364 1229,160 C 1289.8632772243216,149.90862246650636 1364.931638612161,144.95431123325318 1440,140 C 1440,140 1440,700 1440,700 Z" stroke="none" stroke-width="0" fill="url(#gradient)" class="transition-all duration-300 ease-in-out delay-150 path-0"></path><defs><linearGradient id="gradient" x1="0%" y1="50%" x2="100%" y2="50%"><stop offset="5%" stop-color="#002bdc66"></stop><stop offset="95%" stop-color="#21aee466"></stop></linearGradient></defs><path d="M 0,700 C 0,700 0,280 0,280 C 66.72621092408107,271.12469941600824 133.45242184816215,262.2493988320165 204,246 C 274.54757815183785,229.7506011679835 348.9165235314325,206.12710408794226 408,227 C 467.0834764685675,247.87289591205774 510.88148402610784,313.24218481621443 581,314 C 651.1185159738922,314.75781518378557 747.5575403641361,250.9041566472002 819,244 C 890.4424596358639,237.0958433527998 936.888354517348,287.1411885949846 1009,305 C 1081.111645482652,322.8588114050154 1178.889041566472,308.53108897286154 1255,299 C 1331.110958433528,289.46891102713846 1385.555479216764,284.73445551356923 1440,280 C 1440,280 1440,700 1440,700 Z" stroke="none" stroke-width="0" fill="url(#gradient)" class="transition-all duration-300 ease-in-out delay-150 path-1"></path><defs><linearGradient id="gradient" x1="0%" y1="50%" x2="100%" y2="50%"><stop offset="5%" stop-color="#002bdc88"></stop><stop offset="95%" stop-color="#21aee488"></stop></linearGradient></defs><path d="M 0,700 C 0,700 0,420 0,420 C 47.66678117485401,399.4716592236345 95.33356234970802,378.943318447269 173,390 C 250.66643765029198,401.056681552731 358.33253177602194,443.6983854345586 439,441 C 519.6674682239781,438.3016145654414 573.3363105462041,390.26313981449675 640,376 C 706.6636894537959,361.73686018550325 786.3222260391618,381.24905530745446 858,391 C 929.6777739608382,400.75094469254554 993.3747852971487,400.7406389556853 1058,401 C 1122.6252147028513,401.2593610443147 1188.178632772243,401.7883888698042 1252,405 C 1315.821367227757,408.2116111301958 1377.9106836138785,414.1058055650979 1440,420 C 1440,420 1440,700 1440,700 Z" stroke="none" stroke-width="0" fill="url(#gradient)" class="transition-all duration-300 ease-in-out delay-150 path-2"></path><defs><linearGradient id="gradient" x1="0%" y1="50%" x2="100%" y2="50%"><stop offset="5%" stop-color="#002bdcff"></stop><stop offset="95%" stop-color="#21aee4ff"></stop></linearGradient></defs><path d="M 0,700 C 0,700 0,560 0,560 C 44.94400549639299,536.7413260048093 89.88801099278598,513.4826520096186 171,523 C 252.11198900721402,532.5173479903814 369.39196152524903,574.8107179663347 441,580 C 512.608038474751,585.1892820336653 538.5441429062179,553.274476125043 591,559 C 643.4558570937821,564.725523874957 722.4314668498797,608.0913775334936 799,607 C 875.5685331501203,605.9086224665064 949.7299896942632,560.3600137409825 1015,541 C 1080.2700103057368,521.6399862590175 1136.6485743730677,528.4685675025764 1206,536 C 1275.3514256269323,543.5314324974236 1357.6757128134661,551.7657162487118 1440,560 C 1440,560 1440,700 1440,700 Z" stroke="none" stroke-width="0" fill="url(#gradient)" class="transition-all duration-300 ease-in-out delay-150 path-3"></path></svg>